<?xml version="1.0" encoding="UTF-8"?>
<svg width="140px" height="29px" viewBox="0 0 140 29" version="1.1" xmlns="http://www.w3.org/2000/svg" xmlns:xlink="http://www.w3.org/1999/xlink">
    <title></title>
    <defs></defs>
    <g id="FAQ-1" stroke="none" stroke-width="1" fill="none" fill-rule="evenodd" transform="translate(-15.000000, -19.000000)">
        <g id="Group-3" transform="translate(15.000000, 19.000000)">
            <g id="Group-2">
                <path d="M22.030852,14.2516087 C22.2430493,14.3102391 22.6253812,14.3751739 23.2789238,14.3751739 L29.6762332,14.3751739 C31.8973991,14.3751739 34.6521973,13.5121087 34.6521973,11.2816304 L34.6521973,11.0433261 C34.6521973,9.5681087 33.9829596,8.6873913 32.8629596,8.6873913 C32.4297758,8.6873913 31.9564126,8.81663043 31.455426,9.07069565 L23.0880717,13.576413 C22.504843,13.8727174 22.1940807,14.1028261 22.030852,14.2516087 Z M29.6762332,15.8024783 L23.752287,15.8024783 C23.1301345,15.8024783 21.2360538,15.8024783 20.955426,14.6229348 C20.675426,13.4433913 22.3654709,12.5847391 22.9198206,12.3023043 L30.8144395,7.79658696 C31.5150673,7.4403913 32.2043946,7.25945652 32.8629596,7.25945652 C34.7840359,7.25945652 36.0735426,8.78006522 36.0735426,11.0433261 L36.0735426,11.2816304 C36.0735426,14.2988913 32.6815247,15.8024783 29.6762332,15.8024783 Z" id="Fill-324" fill="#FE5C0F"></path>
                <path d="M17.2457399,28.5776087 C14.2454709,28.5776087 11.7292377,26.129 11.7292377,23.1167826 C11.7292377,20.0251304 14.2454709,17.592913 17.2457399,17.592913 C19.215157,17.592913 20.9799103,18.6129565 21.9184753,20.3081957 C22.1997309,20.7778696 22.0120179,21.2645652 21.6378475,21.4373043 C21.2781166,21.6258043 20.7934529,21.5318696 20.6057399,21.1548696 C19.8718386,19.9311957 18.6369507,19.193587 17.2457399,19.193587 C15.1055605,19.193587 13.3238565,20.967 13.3238565,23.1167826 C13.3238565,25.2816957 15.1055605,26.9769348 17.2457399,26.9769348 C18.5434081,26.9769348 19.7770404,26.3175 20.5115695,25.1877609 C20.6999103,24.8107609 21.2781166,24.7168261 21.5436771,24.9998913 C21.9184753,25.1877609 22.1061883,25.6744565 21.8249327,26.0350652 C20.7934529,27.6357391 19.1216143,28.5776087 17.2457399,28.5776087" id="Fill-325" fill="#FE5C0F"></path>
                <path d="M41.5699552,28.4584565 C38.5696861,28.4584565 36.0540807,26.0104783 36.0540807,22.9976304 C36.0540807,19.9059783 38.5696861,17.4737609 41.5699552,17.4737609 C43.5387444,17.4737609 45.3053812,18.4938043 46.2426906,20.1890435 C46.524574,20.6587174 46.3356054,21.145413 45.9608072,21.3181522 C45.601704,21.5072826 45.1176682,21.4127174 44.9299552,21.0357174 C44.1960538,19.8120435 42.9605381,19.0744348 41.5699552,19.0744348 C39.4297758,19.0744348 37.6480717,20.8478478 37.6480717,22.9976304 C37.6480717,25.1631739 39.4297758,26.8577826 41.5699552,26.8577826 C42.8669955,26.8577826 44.1025112,26.1989783 44.8357848,25.0686087 C45.02287,24.6922391 45.601704,24.5983043 45.8672646,24.8807391 C46.2426906,25.0686087 46.4304036,25.5559348 46.1485202,25.9165435 C45.1176682,27.516587 43.4458296,28.4584565 41.5699552,28.4584565" id="Fill-326" fill="#FE5C0F"></path>
                <path d="M39.8058296,4.35 L39.8058296,5.99795652 C40.0349776,5.7981087 40.1806278,5.50243478 40.1806278,5.17397826 C40.1806278,4.84552174 40.0349776,4.55047826 39.8058296,4.35 Z M39.0945291,7.69193478 L38.3838565,7.69193478 L38.3838565,2.65602174 L39.0945291,2.65602174 C40.4775785,2.65602174 41.6026009,3.78576087 41.6026009,5.17397826 C41.6026009,6.56219565 40.4775785,7.69193478 39.0945291,7.69193478 Z" id="Fill-327" fill="#FE5C0F"></path>
                <path d="M40.9578475,17.4182826 C41.0928251,17.8053696 40.8881614,18.2296522 40.501435,18.3639348 C40.1159641,18.4994783 39.6934529,18.294587 39.5591031,17.9068696 L34.961704,4.64882609 C34.8267265,4.26173913 35.0307623,3.83745652 35.416861,3.70254348 C35.8023318,3.567 36.2254709,3.77252174 36.3604484,4.1596087 L40.9578475,17.4182826" id="Fill-328" fill="#FE5C0F"></path>
                <path d="M36.0804484,3.75423913 C36.4144395,3.99128261 36.4941704,4.45528261 36.2593722,4.79067391 C36.0233184,5.12669565 35.5612556,5.20676087 35.2272646,4.97034783 L30.2406278,1.43802174 C29.9072646,1.2016087 29.8269058,0.737608696 30.0623318,0.401586957 C30.2983857,0.0661956522 30.7610762,-0.0138695652 31.0944395,0.222543478 L36.0804484,3.75423913" id="Fill-329" fill="#FE5C0F"></path>
                <path d="M20.0049327,15.0982826 C20.0049327,15.4979783 19.6816143,15.8220217 19.2829596,15.8220217 L11.9,15.8220217 C11.5019731,15.8220217 11.1786547,15.4979783 11.1786547,15.0982826 C11.1786547,14.698587 11.5019731,14.3745435 11.9,14.3745435 L19.2829596,14.3745435 C19.6816143,14.3745435 20.0049327,14.698587 20.0049327,15.0982826" id="Fill-330" fill="#FE5C0F"></path>
                <path d="M12.4286099,14.5712391 C12.7123767,14.843587 12.7217937,15.2956087 12.4512108,15.5805652 C12.18,15.8655217 11.7292377,15.8756087 11.4454709,15.6026304 L9.40573991,13.6426087 C9.12197309,13.3696304 9.11192825,12.9176087 9.38376682,12.6332826 C9.65434978,12.3483261 10.1044843,12.3382391 10.3888789,12.610587 L12.4286099,14.5712391" id="Fill-331" fill="#FE5C0F"></path>
                <polygon id="Fill-332" fill="#FE5C0F" points="0.556233184 20.7589565 9.4032287 20.7589565 9.4032287 19.3310217 0.556233184 19.3310217"></polygon>
                <polygon id="Fill-333" fill="#FE5C0F" points="4.03112108 24.2490435 9.4032287 24.2490435 9.4032287 22.8211087 4.03112108 22.8211087"></polygon>
                <path d="M55.4060987,9.01521739 C57.3924664,9.01521739 58.8577578,10.0995652 59.3273543,11.9164783 L59.3957848,12.1837826 L61.3752466,12.1837826 L61.2810762,11.7500435 C60.6664574,8.94713043 58.3599103,7.13652174 55.4060987,7.13652174 C51.8301345,7.13652174 49.0288789,9.95645652 49.0288789,13.5575 C49.0288789,17.157913 51.8301345,19.9778478 55.4060987,19.9778478 C58.3599103,19.9778478 60.6664574,18.1672391 61.2810762,15.3636957 L61.3752466,14.9299565 L59.3957848,14.9299565 L59.3273543,15.1978913 C58.8577578,17.0148043 57.3924664,18.0991522 55.4060987,18.0991522 C52.8760538,18.0991522 50.9681614,16.1466957 50.9681614,13.5575 C50.9681614,10.9676739 52.8760538,9.01521739 55.4060987,9.01521739" id="Fill-334" fill="#212121"></path>
                <path d="M64.9920179,11.9240435 L64.9920179,11.1101522 L63.1211659,11.1101522 L63.1211659,19.7382826 L64.9920179,19.7382826 L64.9920179,14.3108696 C65.6286099,13.3217174 66.598565,12.7618913 67.7330045,12.7322609 L68.0795516,12.7228043 L68.0795516,10.9046304 L67.7242152,10.9046304 C66.6883408,10.9046304 65.7447534,11.2614565 64.9920179,11.9240435" id="Fill-335" fill="#212121"></path>
                <path d="M72.9456502,12.6295 C74.14287,12.6295 74.9935426,13.3822391 75.2327354,14.6223043 L70.4878027,14.6223043 C70.7470852,13.576413 71.5607175,12.6295 72.9456502,12.6295 Z M72.9795516,10.9046304 C70.4432287,10.9046304 68.5296861,12.8476304 68.5296861,15.4242174 C68.5296861,18.0108913 70.4432287,19.9608261 72.9795516,19.9608261 C74.849148,19.9608261 76.3872646,18.9918478 76.898296,17.4926739 L77.0590135,17.0204783 L75.0745291,17.0204783 L74.9784753,17.2234783 C74.67713,17.8576957 73.9426009,18.236587 73.0128251,18.236587 C71.7327354,18.236587 70.7759641,17.4668261 70.4840359,16.2431522 L76.716861,16.2431522 L77.098565,16.4348043 L77.1538117,15.925413 C77.1713901,15.7596087 77.1726457,15.5748913 77.1726457,15.3876522 C77.1544395,12.7896304 75.3903139,10.9046304 72.9795516,10.9046304 Z" id="Fill-336" fill="#212121"></path>
                <path d="M85.2480717,17.0047174 C84.6686099,17.7889783 83.8625112,18.2025435 82.9088789,18.2025435 C81.4209865,18.2025435 80.210583,16.9561739 80.210583,15.4242174 C80.210583,13.8569565 81.3958744,12.6295 82.9088789,12.6295 C83.8650224,12.6295 84.6723767,13.0481087 85.2480717,13.8418261 L85.2480717,17.0047174 Z M85.2480717,11.6063043 C84.5405381,11.1448261 83.6911211,10.9046304 82.7550673,10.9046304 C80.3104036,10.9046304 78.3221525,12.9321087 78.3221525,15.4242174 C78.3221525,17.9163261 80.3104036,19.9444348 82.7550673,19.9444348 C83.6911211,19.9444348 84.5405381,19.7036087 85.2480717,19.2421304 L85.2480717,19.7382826 L87.1195516,19.7382826 L87.1195516,6.86228261 L85.2480717,6.86228261 L85.2480717,11.6063043 Z" id="Fill-337" fill="#212121"></path>
                <path d="M90.4826906,7.3243913 C89.8341704,7.3243913 89.3269058,7.82747826 89.3269058,8.46926087 C89.3269058,9.11167391 89.8341704,9.61413043 90.4826906,9.61413043 C91.1531839,9.61413043 91.658565,9.1223913 91.658565,8.46926087 C91.658565,7.82747826 91.1418834,7.3243913 90.4826906,7.3243913" id="Fill-338" fill="#212121"></path>
                <polygon id="Fill-339" fill="#212121" points="89.5472646 19.7382826 91.4193722 19.7382826 91.4193722 11.1101522 89.5472646 11.1101522"></polygon>
                <path d="M99.4282511,17.9043478 L99.0540807,18.0096304 C98.6190135,18.1319348 98.1695067,18.2025435 97.8191928,18.2025435 C96.9534529,18.2025435 96.418565,17.9238913 96.418565,16.5381957 L96.418565,12.8350217 L99.403139,12.8350217 L99.403139,11.1101522 L96.418565,11.1101522 L96.418565,8.18115217 L94.5464574,8.18115217 L94.5464574,11.1101522 L92.4483408,11.1101522 L92.4483408,12.8350217 L94.5464574,12.8350217 L94.5464574,16.5381957 C94.5464574,19.3953261 96.224574,19.9955 97.6314798,19.9955 C98.2159641,19.9955 98.7037668,19.9173261 99.435157,19.7073913 L99.7465471,19.6178696 L99.4282511,17.9043478" id="Fill-340" fill="#212121"></path>
                <polyline id="Fill-341" fill="#212121" points="112.933543 19.3814565 111.722511 19.3814565 111.74009 10.4053261 107.747892 17.0860435 106.929865 17.0860435 102.903767 10.3536304 102.937668 19.3814565 101.726637 19.3814565 101.726637 7.73291304 102.665202 7.73291304 107.338565 15.6127174 112.012556 7.73291304 112.933543 7.73291304 112.933543 19.3814565"></polyline>
                <path d="M122.095695,17.1371087 L122.095695,13.7283478 C121.430852,12.7694565 120.475964,12.2890652 119.400538,12.2890652 C117.660897,12.2890652 116.347534,13.7283478 116.347534,15.4242174 C116.347534,17.1371087 117.660897,18.5763913 119.400538,18.5763913 C120.475964,18.5763913 121.430852,18.0966304 122.095695,17.1371087 Z M123.256502,19.3814565 L122.095695,19.3814565 L122.095695,18.5076739 C121.378744,19.1929565 120.424484,19.604 119.247354,19.604 C116.995426,19.604 115.170404,17.7543043 115.170404,15.4242174 C115.170404,13.1117826 116.995426,11.2614565 119.247354,11.2614565 C120.424484,11.2614565 121.378744,11.6725 122.095695,12.3577826 L122.095695,11.4669783 L123.256502,11.4669783 L123.256502,19.3814565 Z" id="Fill-342" fill="#212121"></path>
                <path d="M130.865471,19.3644348 C130.14852,19.5699565 129.688341,19.6386739 129.159103,19.6386739 C127.351031,19.6386739 126.429417,18.593413 126.429417,16.5381957 L126.429417,12.4775652 L124.3313,12.4775652 L124.3313,11.4669783 L126.429417,11.4669783 L126.429417,8.53797826 L127.590224,8.53797826 L127.590224,11.4669783 L130.575426,11.4669783 L130.575426,12.4775652 L127.590224,12.4775652 L127.590224,16.5381957 C127.590224,17.9768478 128.152735,18.5593696 129.347444,18.5593696 C129.756143,18.5593696 130.252108,18.473 130.677758,18.3538478 L130.865471,19.3644348" id="Fill-343" fill="#212121"></path>
                <path d="M132.742601,14.9791304 L138.321256,14.9791304 C138.183767,13.3860217 137.177399,12.2726739 135.626099,12.2726739 C133.970583,12.2726739 132.912108,13.4887826 132.742601,14.9791304 Z M139.480807,15.8863261 L139.412377,15.852913 L139.412377,15.8863261 L132.742601,15.8863261 C132.912108,17.3943261 133.987534,18.593413 135.693901,18.593413 C136.785022,18.593413 137.621256,18.1313043 137.979731,17.3773043 L139.241614,17.3773043 C138.780807,18.7302174 137.399013,19.604 135.659372,19.604 C133.253632,19.604 131.565471,17.7706957 131.565471,15.4242174 C131.565471,13.0947609 133.253632,11.2614565 135.659372,11.2614565 C137.910673,11.2614565 139.480807,13.0090217 139.497758,15.3901739 C139.497758,15.5610217 139.497758,15.7325 139.480807,15.8863261 Z" id="Fill-344" fill="#212121"></path>
            </g>
        </g>
    </g>
</svg>